<svg width="23" height="19" viewBox="0 0 23 19" fill="none" xmlns="http://www.w3.org/2000/svg">
<path d="M7.97696 14.0629L3.17696 9.26293C2.82317 8.92155 2.34945 8.73278 1.85783 8.73728C1.36621 8.74179 0.896028 8.9392 0.54855 9.28701C0.201072 9.63481 0.00410204 10.1052 6.3348e-05 10.5968C-0.00397535 11.0884 0.185241 11.562 0.526957 11.9154L6.77696 18.1654C6.96114 18.3495 7.18164 18.4932 7.4244 18.5873C7.66717 18.6815 7.92689 18.724 8.187 18.7122C8.44712 18.7005 8.70193 18.6347 8.93522 18.519C9.1685 18.4033 9.37514 18.2404 9.54196 18.0404L22.042 3.04043C22.3462 2.65699 22.4884 2.16976 22.4383 1.68285C22.3881 1.19594 22.1495 0.747952 21.7735 0.43459C21.3975 0.121227 20.9138 -0.0326612 20.4258 0.0058016C19.9378 0.0442644 19.4843 0.272028 19.162 0.640434L7.97696 14.0629Z" fill="#340040"/>
</svg>
