<svg width="355" height="325" viewBox="0 0 355 325" fill="none" xmlns="http://www.w3.org/2000/svg">
<path d="M3.2516 309.485L80.9384 10.4853C82.0837 6.07731 86.0627 3 90.6171 3H266.821C271.402 3 275.398 6.11366 276.517 10.5564L351.864 309.556C353.456 315.872 348.681 322 342.167 322H12.9302C6.38643 322 1.60601 315.819 3.2516 309.485Z" stroke="#07F2F2" stroke-width="5"/>
<path d="M54.4233 112.93H301.575" stroke="#07F2F2" stroke-width="5"/>
<ellipse cx="178.748" cy="115.628" rx="39.9437" ry="35.7442" stroke="#07F2F2" stroke-width="5"/>
<path d="M80.3868 322L94.1158 228.043C94.8335 223.13 99.0463 219.488 104.011 219.488H252.903C257.903 219.488 262.135 223.182 262.811 228.137L275.612 322" stroke="#07F2F2" stroke-width="5"/>
<path d="M231.674 5.02325L236.599 35.2619C236.896 37.0872 235.487 38.7442 233.638 38.7442H124.358C122.509 38.7442 121.1 37.0872 121.397 35.2619L126.322 5.02325" stroke="#07F2F2" stroke-width="5"/>
</svg>
